fd_4_states
version=1
nRows=43
nColumns=17
inDegrees=yes

# SIMM Motion File Header:
name fd_4_states
datacolumns 17
datarows 43
otherdata 1
range 0.360057 0.385609
endheader
time	/jointset/r_shoulder/r_shoulder_elev/value	/jointset/r_shoulder/r_shoulder_elev/speed	/jointset/r_elbow/r_elbow_flex/value	/jointset/r_elbow/r_elbow_flex/speed	/forceset/TRIlong/activation	/forceset/TRIlong/fiber_length	/forceset/TRIlat/activation	/forceset/TRIlat/fiber_length	/forceset/TRImed/activation	/forceset/TRImed/fiber_length	/forceset/BIClong/activation	/forceset/BIClong/fiber_length	/forceset/BICshort/activation	/forceset/BICshort/fiber_length	/forceset/BRA/activation	/forceset/BRA/fiber_length
      0.360057	     -7.364291	     55.407440	     79.888681	    290.544950	      0.021498	      0.161687	      0.195165	      0.099475	      0.191953	      0.094552	      0.899448	      0.106938	      0.397925	      0.105987	      0.022293	      0.072661
      0.360125	     -7.360537	     55.457286	     79.908357	    290.560658	      0.021497	      0.161696	      0.195284	      0.099482	      0.192079	      0.094558	      0.899727	      0.106920	      0.397224	      0.105966	      0.022291	      0.072654
      0.360463	     -7.341717	     55.705193	     80.006756	    290.646646	      0.021490	      0.161740	      0.195867	      0.099514	      0.192689	      0.094590	      0.901106	      0.106828	      0.393749	      0.105865	      0.022280	      0.072618
      0.362156	     -7.246372	     56.923671	     80.499276	    291.204955	      0.021457	      0.161973	      0.198427	      0.099672	      0.195371	      0.094749	      0.907615	      0.106367	      0.377079	      0.105392	      0.022229	      0.072437
      0.362774	     -7.211086	     57.365418	     80.679168	    291.445251	      0.021445	      0.162040	      0.199231	      0.099731	      0.196212	      0.094807	      0.909838	      0.106200	      0.371277	      0.105229	      0.022211	      0.072370
      0.363524	     -7.167847	     57.900435	     80.897934	    291.740437	      0.021431	      0.162175	      0.200126	      0.099802	      0.197148	      0.094878	      0.912436	      0.105996	      0.364416	      0.105036	      0.022189	      0.072289
      0.364274	     -7.124204	     58.441261	     81.116927	    292.050200	      0.021416	      0.162237	      0.200940	      0.099874	      0.197998	      0.094950	      0.914927	      0.105792	      0.357752	      0.104849	      0.022167	      0.072208
      0.365025	     -7.080156	     58.980915	     81.336147	    292.341356	      0.021402	      0.162412	      0.201680	      0.099946	      0.198771	      0.095021	      0.917315	      0.105588	      0.351279	      0.104666	      0.022146	      0.072127
      0.365775	     -7.035698	     59.534780	     81.555594	    292.651919	      0.021388	      0.162447	      0.202353	      0.100018	      0.199474	      0.095094	      0.919606	      0.105385	      0.344988	      0.104486	      0.022124	      0.072045
      0.366315	     -7.003459	     59.930874	     81.713598	    292.848772	      0.021379	      0.162510	      0.202800	      0.100070	      0.199939	      0.095146	      0.921195	      0.105238	      0.340571	      0.104358	      0.022109	      0.071986
      0.367071	     -6.957911	     60.489674	     81.935231	    293.104219	      0.021365	      0.162640	      0.203377	      0.100144	      0.200541	      0.095219	      0.923345	      0.105033	      0.334528	      0.104181	      0.022088	      0.071904
      0.367828	     -6.911938	     61.058300	     82.157051	    293.348415	      0.021351	      0.162710	      0.203901	      0.100217	      0.201087	      0.095293	      0.925406	      0.104827	      0.328651	      0.104006	      0.022067	      0.071821
      0.368440	     -6.874378	     61.520604	     82.336875	    293.518761	      0.021340	      0.162838	      0.204291	      0.100277	      0.201493	      0.095352	      0.927014	      0.104660	      0.324007	      0.103865	      0.022050	      0.071753
      0.369053	     -6.836532	     61.992072	     82.516803	    293.685991	      0.021329	      0.162882	      0.204652	      0.100337	      0.201869	      0.095412	      0.928569	      0.104494	      0.319465	      0.103725	      0.022034	      0.071686
      0.369803	     -6.789836	     62.571153	     82.737063	    293.854438	      0.021316	      0.162977	      0.205058	      0.100411	      0.202291	      0.095486	      0.930402	      0.104290	      0.314041	      0.103555	      0.022013	      0.071603
      0.370004	     -6.777249	     62.727125	     82.796109	    293.893799	      0.021313	      0.163008	      0.205159	      0.100430	      0.202396	      0.095505	      0.930883	      0.104235	      0.312629	      0.103510	      0.022008	      0.071581
      0.370135	     -6.769041	     62.828969	     82.834535	    293.918528	      0.021310	      0.163026	      0.205168	      0.100443	      0.202403	      0.095518	      0.931332	      0.104199	      0.312651	      0.103480	      0.022004	      0.071567
      0.370265	     -6.760820	     62.931060	     82.872964	    293.942498	      0.021308	      0.163044	      0.205166	      0.100456	      0.202398	      0.095531	      0.931804	      0.104164	      0.312846	      0.103450	      0.022001	      0.071552
      0.370919	     -6.719514	     63.444172	     83.065154	    294.053237	      0.021297	      0.163134	      0.205160	      0.100521	      0.202375	      0.095596	      0.934111	      0.103985	      0.313783	      0.103299	      0.021984	      0.071480
      0.371733	     -6.667608	     64.087818	     83.304568	    294.179564	      0.021283	      0.163239	      0.205151	      0.100602	      0.202346	      0.095677	      0.936870	      0.103763	      0.314864	      0.103108	      0.021962	      0.071389
      0.372308	     -6.630611	     64.543134	     83.473819	    294.260795	      0.021273	      0.163363	      0.205145	      0.100660	      0.202326	      0.095734	      0.938746	      0.103605	      0.315573	      0.102971	      0.021947	      0.071325
      0.372884	     -6.593349	     65.003968	     83.643120	    294.353907	      0.021263	      0.163404	      0.205139	      0.100717	      0.202306	      0.095792	      0.940564	      0.103448	      0.316242	      0.102832	      0.021932	      0.071261
      0.373559	     -6.549241	     65.542259	     83.842064	    294.452323	      0.021252	      0.163491	      0.205133	      0.100785	      0.202284	      0.095860	      0.942627	      0.103262	      0.316977	      0.102667	      0.021915	      0.071186
      0.374235	     -6.504768	     66.078461	     84.041076	    294.547491	      0.021241	      0.163669	      0.205126	      0.100853	      0.202261	      0.095927	      0.944616	      0.103076	      0.317663	      0.102500	      0.021898	      0.071111
      0.374911	     -6.459929	     66.626990	     84.240166	    294.678851	      0.021230	      0.163693	      0.205119	      0.100921	      0.202239	      0.095995	      0.946533	      0.102890	      0.318302	      0.102331	      0.021881	      0.071035
      0.375388	     -6.428071	     67.007441	     84.380683	    294.754620	      0.021222	      0.163747	      0.205115	      0.100968	      0.202223	      0.096042	      0.947844	      0.102759	      0.318726	      0.102212	      0.021869	      0.070981
      0.376100	     -6.380106	     67.574204	     84.590828	    294.866257	      0.021210	      0.163867	      0.205108	      0.101040	      0.202200	      0.096114	      0.949742	      0.102562	      0.319323	      0.102032	      0.021851	      0.070901
      0.376653	     -6.342669	     68.015172	     84.753678	    294.961941	      0.021201	      0.163922	      0.205103	      0.101095	      0.202183	      0.096169	      0.951162	      0.102410	      0.319757	      0.101892	      0.021838	      0.070839
      0.377378	     -6.293098	     68.590866	     84.967790	    295.082421	      0.021190	      0.164092	      0.205096	      0.101168	      0.202160	      0.096242	      0.952966	      0.102209	      0.320290	      0.101707	      0.021820	      0.070757
      0.378104	     -6.243106	     69.175717	     85.182001	    295.234287	      0.021178	      0.164130	      0.205089	      0.101241	      0.202138	      0.096315	      0.954701	      0.102009	      0.320784	      0.101520	      0.021803	      0.070675
      0.378637	     -6.206117	     69.599439	     85.339411	    295.333315	      0.021170	      0.164199	      0.205085	      0.101295	      0.202121	      0.096368	      0.955934	      0.101861	      0.321125	      0.101383	      0.021790	      0.070615
      0.379335	     -6.157350	     70.151822	     85.545571	    295.461109	      0.021159	      0.164382	      0.205078	      0.101365	      0.202100	      0.096439	      0.957495	      0.101668	      0.321543	      0.101203	      0.021773	      0.070536
      0.380033	     -6.108192	     70.716779	     85.751834	    295.627434	      0.021149	      0.164408	      0.205078	      0.101436	      0.202082	      0.096509	      0.958999	      0.101474	      0.321957	      0.101022	      0.021757	      0.070457
      0.380491	     -6.075739	     71.080621	     85.887178	    295.719928	      0.021142	      0.164462	      0.205328	      0.101482	      0.202321	      0.096555	      0.959955	      0.101347	      0.322824	      0.100903	      0.021746	      0.070405
      0.380948	     -6.043119	     71.443997	     86.022563	    295.809058	      0.021135	      0.164530	      0.205610	      0.101527	      0.202595	      0.096600	      0.960889	      0.101220	      0.323753	      0.100783	      0.021736	      0.070353
      0.381616	     -5.995255	     71.976431	     86.220050	    295.937726	      0.021125	      0.164619	      0.205993	      0.101594	      0.202967	      0.096667	      0.962210	      0.101035	      0.325032	      0.100608	      0.021720	      0.070277
      0.382167	     -5.955466	     72.415830	     86.383173	    296.034773	      0.021117	      0.164751	      0.206286	      0.101648	      0.203252	      0.096721	      0.963266	      0.100882	      0.326023	      0.100462	      0.021708	      0.070214
      0.382718	     -5.915433	     72.862765	     86.546353	    296.143960	      0.021108	      0.164784	      0.206560	      0.101703	      0.203518	      0.096776	      0.964292	      0.100728	      0.326958	      0.100317	      0.021695	      0.070151
      0.383220	     -5.878784	     73.266439	     86.694921	    296.228503	      0.021101	      0.164850	      0.206793	      0.101753	      0.203744	      0.096826	      0.965200	      0.100589	      0.327765	      0.100183	      0.021684	      0.070093
      0.383873	     -5.830733	     73.791761	     86.888538	    296.328437	      0.021091	      0.165021	      0.207076	      0.101818	      0.204018	      0.096891	      0.966348	      0.100407	      0.328755	      0.100009	      0.021669	      0.070018
      0.384527	     -5.782334	     74.330131	     87.082230	    296.453158	      0.021082	      0.165048	      0.207337	      0.101884	      0.204271	      0.096956	      0.967457	      0.100225	      0.329680	      0.099835	      0.021655	      0.069943
      0.384975	     -5.748956	     74.693776	     87.215043	    296.519355	      0.021076	      0.165103	      0.207504	      0.101929	      0.204433	      0.097001	      0.968195	      0.100100	      0.330280	      0.099715	      0.021645	      0.069892
      0.385609	     -5.701430	     75.207663	     87.403089	    296.604214	      0.021067	      0.165241	      0.207725	      0.101992	      0.204647	      0.097065	      0.969211	      0.099923	      0.331083	      0.099545	      0.021631	      0.069818
